<svg xmlns="http://www.w3.org/2000/svg" width="792" height="259.7" viewBox="106 22.5 293 139"><path d="M459 83.74a2.93 2.93 0 0 0 4.92-1.74V47.51a3.57 3.57 0 0 0-3.59-3.58h-34.45c-2 0-3.8 2.92-1.94 4.78S457.08 81.84 459 83.74z" fill="#ec2027"/><path d="M40.74 47.12a2.76 2.76 0 0 1 2.78-2.73H58.7a2.76 2.76 0 0 1 2.78 2.73v33.37c0 1.5.63 1.67 1.4.37l20.29-34.11a5.38 5.38 0 0 1 4.18-2.36h15.4c1.53 0 2.08 1 1.21 2.25L83.32 76.28a5.44 5.44 0 0 0-.47 4.72l23.54 53.67a1.67 1.67 0 0 1-1.68 2.5h-15.9a4.35 4.35 0 0 1-3.81-2.5L70.37 97c-.54-1.4-1.7-1.54-2.57-.31l-4.75 6.73a10.21 10.21 0 0 0-1.58 5v26.1a2.76 2.76 0 0 1-2.78 2.73H43.52a2.76 2.76 0 0 1-2.78-2.73zM110.23 47.12a2.76 2.76 0 0 1 2.77-2.73h14a2.76 2.76 0 0 1 2.78 2.73v87.37a2.76 2.76 0 0 1-2.78 2.73h-14a2.76 2.76 0 0 1-2.78-2.73zM157.57 60.11a2.77 2.77 0 0 1-2.78 2.73h-14.15a2.77 2.77 0 0 1-2.78-2.73v-13.5a2.76 2.76 0 0 1 2.78-2.73h14.14a2.76 2.76 0 0 1 2.78 2.73zM138 71.23a2.76 2.76 0 0 1 2.78-2.73h13.94a2.76 2.76 0 0 1 2.78 2.73v63.25a2.76 2.76 0 0 1-2.78 2.73h-13.98a2.76 2.76 0 0 1-2.78-2.73zM165.8 71.23a2.76 2.76 0 0 1 2.78-2.73h12.5a2.76 2.76 0 0 1 2.78 2.73V76c0 1.5 1.28 1.72 1.74.6a16 16 0 0 1 14.14-9q9.59 0 15.94 8.4t6.32 25.67q0 18.09-6.22 27.27a19.93 19.93 0 0 1-17.49 9.18 16.87 16.87 0 0 1-13.29-6.05v25.73a2.76 2.76 0 0 1-2.78 2.73h-13.64a2.76 2.76 0 0 1-2.78-2.73zm19.19 35c0 1.5.06 4 .14 5.46 0 0 .4 8.1 1.48 10.07s3.28 2.95 6.6 2.95a7 7 0 0 0 6.56-3.94q2.14-3.93 2.14-19.07 0-12.63-1.86-17.1t-6.29-4.48a8.09 8.09 0 0 0-6.22 2.88Q185 85.8 185 96zM250.53 68.51v66a2.76 2.76 0 0 1-2.78 2.73h-13.11a2.76 2.76 0 0 1-2.78-2.73s.06-67.21.13-68.71c0 0 .45-9.11 1.46-12.47a17.5 17.5 0 0 1 6.55-8.87q5.05-3.82 13.78-3.81a51.32 51.32 0 0 1 7.36.59 2.59 2.59 0 0 1 2.46 2.6v9.76a2.47 2.47 0 0 1-2.77 2.48h-1.6q-5.62 0-7.17 2.35t-1.53 10.08zM319.29 102.83q0 35.8-28.34 35.81t-28.4-35.81q0-35.73 28.4-35.74t28.34 35.74zm-20.11 0q0-13.14-1.82-17.76t-6.36-4.6q-4.42 0-6.35 4.39t-1.93 18q0 12.59 1.66 17.5t6.62 4.9q4.77 0 6.5-4.87t1.68-17.53zM325.78 47.12a2.76 2.76 0 0 1 2.79-2.73h13.93a2.76 2.76 0 0 1 2.78 2.73v87.37a2.76 2.76 0 0 1-2.78 2.73h-13.93a2.76 2.76 0 0 1-2.79-2.73zM373.12 60.11a2.77 2.77 0 0 1-2.78 2.73H356.2a2.76 2.76 0 0 1-2.78-2.73v-13.5a2.75 2.75 0 0 1 2.78-2.73h14.14a2.77 2.77 0 0 1 2.78 2.73zm-19.6 11.12a2.76 2.76 0 0 1 2.78-2.73h13.94a2.76 2.76 0 0 1 2.76 2.73v63.25a2.76 2.76 0 0 1-2.78 2.73h-13.93a2.76 2.76 0 0 1-2.78-2.73zM436.24 102.83q0 35.8-28.33 35.81t-28.41-35.81q0-35.73 28.41-35.74t28.33 35.74zm-20.11 0q0-13.14-1.84-17.76t-6.38-4.63c-2.94 0-5.07 1.46-6.36 4.39s-1.92 8.93-1.92 18q0 12.59 1.66 17.5c1.09 3.26 3.31 4.9 6.63 4.9s5.34-1.62 6.49-4.87 1.72-9.06 1.72-17.5z"/><path d="M262.78 80.85a2.77 2.77 0 0 1-2.78 2.73h-33.26a2.76 2.76 0 0 1-2.74-2.73v-9.63a2.76 2.76 0 0 1 2.78-2.73H260a2.77 2.77 0 0 1 2.78 2.73z"/></svg>